<svg xmlns="http://www.w3.org/2000/svg" xmlns:xlink="http://www.w3.org/1999/xlink" width="1080" zoomAndPan="magnify" viewBox="0 0 810 809.999993" height="1080" preserveAspectRatio="xMidYMid meet" version="1.0"><defs><g/><linearGradient x1="-47.499999" gradientTransform="matrix(1, 0, 0, 1, 0.00000069167, 0.000000875)" y1="47.5" x2="739.391509" gradientUnits="userSpaceOnUse" y2="47.5" id="c02baeb8b5"><stop stop-opacity="1" stop-color="rgb(54.899597%, 32.199097%, 100%)" offset="0"/><stop stop-opacity="1" stop-color="rgb(54.858398%, 32.246399%, 100%)" offset="0.0625"/><stop stop-opacity="1" stop-color="rgb(54.672241%, 32.467651%, 100%)" offset="0.0703125"/><stop stop-opacity="1" stop-color="rgb(54.380798%, 32.817078%, 100%)" offset="0.078125"/><stop stop-opacity="1" stop-color="rgb(54.08783%, 33.164978%, 100%)" offset="0.0859375"/><stop stop-opacity="1" stop-color="rgb(53.796387%, 33.512878%, 100%)" offset="0.09375"/><stop stop-opacity="1" stop-color="rgb(53.503418%, 33.862305%, 100%)" offset="0.101562"/><stop stop-opacity="1" stop-color="rgb(53.211975%, 34.210205%, 100%)" offset="0.109375"/><stop stop-opacity="1" stop-color="rgb(52.919006%, 34.558105%, 100%)" offset="0.117187"/><stop stop-opacity="1" stop-color="rgb(52.626038%, 34.906006%, 100%)" offset="0.125"/><stop stop-opacity="1" stop-color="rgb(52.334595%, 35.255432%, 100%)" offset="0.132812"/><stop stop-opacity="1" stop-color="rgb(52.041626%, 35.603333%, 100%)" offset="0.140625"/><stop stop-opacity="1" stop-color="rgb(51.750183%, 35.951233%, 100%)" offset="0.148437"/><stop stop-opacity="1" stop-color="rgb(51.457214%, 36.299133%, 100%)" offset="0.15625"/><stop stop-opacity="1" stop-color="rgb(51.164246%, 36.64856%, 100%)" offset="0.164062"/><stop stop-opacity="1" stop-color="rgb(50.872803%, 36.99646%, 100%)" offset="0.171875"/><stop stop-opacity="1" stop-color="rgb(50.579834%, 37.34436%, 100%)" offset="0.179688"/><stop stop-opacity="1" stop-color="rgb(50.288391%, 37.692261%, 100%)" offset="0.1875"/><stop stop-opacity="1" stop-color="rgb(49.995422%, 38.041687%, 100%)" offset="0.195312"/><stop stop-opacity="1" stop-color="rgb(49.703979%, 38.389587%, 100%)" offset="0.203125"/><stop stop-opacity="1" stop-color="rgb(49.411011%, 38.737488%, 100%)" offset="0.210937"/><stop stop-opacity="1" stop-color="rgb(49.118042%, 39.085388%, 100%)" offset="0.21875"/><stop stop-opacity="1" stop-color="rgb(48.826599%, 39.434814%, 100%)" offset="0.226562"/><stop stop-opacity="1" stop-color="rgb(48.53363%, 39.782715%, 100%)" offset="0.234375"/><stop stop-opacity="1" stop-color="rgb(48.242188%, 40.130615%, 100%)" offset="0.242188"/><stop stop-opacity="1" stop-color="rgb(47.949219%, 40.480042%, 100%)" offset="0.25"/><stop stop-opacity="1" stop-color="rgb(47.657776%, 40.827942%, 100%)" offset="0.257812"/><stop stop-opacity="1" stop-color="rgb(47.364807%, 41.175842%, 100%)" offset="0.265625"/><stop stop-opacity="1" stop-color="rgb(47.071838%, 41.523743%, 100%)" offset="0.273438"/><stop stop-opacity="1" stop-color="rgb(46.780396%, 41.873169%, 100%)" offset="0.28125"/><stop stop-opacity="1" stop-color="rgb(46.487427%, 42.221069%, 100%)" offset="0.289062"/><stop stop-opacity="1" stop-color="rgb(46.195984%, 42.56897%, 100%)" offset="0.296875"/><stop stop-opacity="1" stop-color="rgb(45.903015%, 42.91687%, 100%)" offset="0.304688"/><stop stop-opacity="1" stop-color="rgb(45.611572%, 43.266296%, 100%)" offset="0.3125"/><stop stop-opacity="1" stop-color="rgb(45.318604%, 43.614197%, 100%)" offset="0.320312"/><stop stop-opacity="1" stop-color="rgb(45.025635%, 43.962097%, 100%)" offset="0.328125"/><stop stop-opacity="1" stop-color="rgb(44.734192%, 44.309998%, 100%)" offset="0.335938"/><stop stop-opacity="1" stop-color="rgb(44.441223%, 44.659424%, 100%)" offset="0.34375"/><stop stop-opacity="1" stop-color="rgb(44.14978%, 45.007324%, 100%)" offset="0.351562"/><stop stop-opacity="1" stop-color="rgb(43.856812%, 45.355225%, 100%)" offset="0.359375"/><stop stop-opacity="1" stop-color="rgb(43.563843%, 45.703125%, 100%)" offset="0.367188"/><stop stop-opacity="1" stop-color="rgb(43.2724%, 46.052551%, 100%)" offset="0.375"/><stop stop-opacity="1" stop-color="rgb(42.979431%, 46.400452%, 100%)" offset="0.382812"/><stop stop-opacity="1" stop-color="rgb(42.687988%, 46.748352%, 100%)" offset="0.390625"/><stop stop-opacity="1" stop-color="rgb(42.39502%, 47.096252%, 100%)" offset="0.398438"/><stop stop-opacity="1" stop-color="rgb(42.103577%, 47.445679%, 100%)" offset="0.40625"/><stop stop-opacity="1" stop-color="rgb(41.810608%, 47.793579%, 100%)" offset="0.414063"/><stop stop-opacity="1" stop-color="rgb(41.517639%, 48.141479%, 100%)" offset="0.421875"/><stop stop-opacity="1" stop-color="rgb(41.226196%, 48.490906%, 100%)" offset="0.429688"/><stop stop-opacity="1" stop-color="rgb(40.933228%, 48.838806%, 100%)" offset="0.4375"/><stop stop-opacity="1" stop-color="rgb(40.641785%, 49.186707%, 100%)" offset="0.445313"/><stop stop-opacity="1" stop-color="rgb(40.348816%, 49.534607%, 100%)" offset="0.453125"/><stop stop-opacity="1" stop-color="rgb(40.057373%, 49.884033%, 100%)" offset="0.460938"/><stop stop-opacity="1" stop-color="rgb(39.764404%, 50.231934%, 100%)" offset="0.46875"/><stop stop-opacity="1" stop-color="rgb(39.471436%, 50.579834%, 100%)" offset="0.476563"/><stop stop-opacity="1" stop-color="rgb(39.179993%, 50.927734%, 100%)" offset="0.484375"/><stop stop-opacity="1" stop-color="rgb(38.887024%, 51.277161%, 100%)" offset="0.492187"/><stop stop-opacity="1" stop-color="rgb(38.595581%, 51.625061%, 100%)" offset="0.5"/><stop stop-opacity="1" stop-color="rgb(38.302612%, 51.972961%, 100%)" offset="0.507812"/><stop stop-opacity="1" stop-color="rgb(38.011169%, 52.320862%, 100%)" offset="0.515625"/><stop stop-opacity="1" stop-color="rgb(37.718201%, 52.670288%, 100%)" offset="0.523438"/><stop stop-opacity="1" stop-color="rgb(37.425232%, 53.018188%, 100%)" offset="0.53125"/><stop stop-opacity="1" stop-color="rgb(37.133789%, 53.366089%, 100%)" offset="0.539062"/><stop stop-opacity="1" stop-color="rgb(36.84082%, 53.713989%, 100%)" offset="0.546875"/><stop stop-opacity="1" stop-color="rgb(36.549377%, 54.063416%, 100%)" offset="0.554688"/><stop stop-opacity="1" stop-color="rgb(36.256409%, 54.411316%, 100%)" offset="0.5625"/><stop stop-opacity="1" stop-color="rgb(35.96344%, 54.759216%, 100%)" offset="0.570312"/><stop stop-opacity="1" stop-color="rgb(35.671997%, 55.107117%, 100%)" offset="0.578125"/><stop stop-opacity="1" stop-color="rgb(35.379028%, 55.456543%, 100%)" offset="0.585938"/><stop stop-opacity="1" stop-color="rgb(35.087585%, 55.804443%, 100%)" offset="0.59375"/><stop stop-opacity="1" stop-color="rgb(34.794617%, 56.152344%, 100%)" offset="0.601562"/><stop stop-opacity="1" stop-color="rgb(34.503174%, 56.50177%, 100%)" offset="0.609375"/><stop stop-opacity="1" stop-color="rgb(34.210205%, 56.84967%, 100%)" offset="0.617188"/><stop stop-opacity="1" stop-color="rgb(33.917236%, 57.197571%, 100%)" offset="0.625"/><stop stop-opacity="1" stop-color="rgb(33.625793%, 57.545471%, 100%)" offset="0.632812"/><stop stop-opacity="1" stop-color="rgb(33.332825%, 57.894897%, 100%)" offset="0.640625"/><stop stop-opacity="1" stop-color="rgb(33.041382%, 58.242798%, 100%)" offset="0.648438"/><stop stop-opacity="1" stop-color="rgb(32.748413%, 58.590698%, 100%)" offset="0.65625"/><stop stop-opacity="1" stop-color="rgb(32.45697%, 58.938599%, 100%)" offset="0.664062"/><stop stop-opacity="1" stop-color="rgb(32.164001%, 59.288025%, 100%)" offset="0.671875"/><stop stop-opacity="1" stop-color="rgb(31.871033%, 59.635925%, 100%)" offset="0.679688"/><stop stop-opacity="1" stop-color="rgb(31.57959%, 59.983826%, 100%)" offset="0.6875"/><stop stop-opacity="1" stop-color="rgb(31.286621%, 60.331726%, 100%)" offset="0.695312"/><stop stop-opacity="1" stop-color="rgb(30.995178%, 60.681152%, 100%)" offset="0.703125"/><stop stop-opacity="1" stop-color="rgb(30.702209%, 61.029053%, 100%)" offset="0.710938"/><stop stop-opacity="1" stop-color="rgb(30.410767%, 61.376953%, 100%)" offset="0.71875"/><stop stop-opacity="1" stop-color="rgb(30.117798%, 61.724854%, 100%)" offset="0.726562"/><stop stop-opacity="1" stop-color="rgb(29.824829%, 62.07428%, 100%)" offset="0.734375"/><stop stop-opacity="1" stop-color="rgb(29.533386%, 62.42218%, 100%)" offset="0.742188"/><stop stop-opacity="1" stop-color="rgb(29.240417%, 62.770081%, 100%)" offset="0.75"/><stop stop-opacity="1" stop-color="rgb(28.948975%, 63.119507%, 100%)" offset="0.757812"/><stop stop-opacity="1" stop-color="rgb(28.656006%, 63.467407%, 100%)" offset="0.765625"/><stop stop-opacity="1" stop-color="rgb(28.363037%, 63.815308%, 100%)" offset="0.773437"/><stop stop-opacity="1" stop-color="rgb(28.071594%, 64.163208%, 100%)" offset="0.78125"/><stop stop-opacity="1" stop-color="rgb(27.778625%, 64.512634%, 100%)" offset="0.789062"/><stop stop-opacity="1" stop-color="rgb(27.487183%, 64.860535%, 100%)" offset="0.796875"/><stop stop-opacity="1" stop-color="rgb(27.194214%, 65.208435%, 100%)" offset="0.804687"/><stop stop-opacity="1" stop-color="rgb(26.902771%, 65.556335%, 100%)" offset="0.8125"/><stop stop-opacity="1" stop-color="rgb(26.609802%, 65.905762%, 100%)" offset="0.820312"/><stop stop-opacity="1" stop-color="rgb(26.316833%, 66.253662%, 100%)" offset="0.828125"/><stop stop-opacity="1" stop-color="rgb(26.025391%, 66.601562%, 100%)" offset="0.835937"/><stop stop-opacity="1" stop-color="rgb(25.732422%, 66.949463%, 100%)" offset="0.84375"/><stop stop-opacity="1" stop-color="rgb(25.440979%, 67.298889%, 100%)" offset="0.851562"/><stop stop-opacity="1" stop-color="rgb(25.14801%, 67.64679%, 100%)" offset="0.859375"/><stop stop-opacity="1" stop-color="rgb(24.856567%, 67.99469%, 100%)" offset="0.867187"/><stop stop-opacity="1" stop-color="rgb(24.563599%, 68.34259%, 100%)" offset="0.875"/><stop stop-opacity="1" stop-color="rgb(24.27063%, 68.692017%, 100%)" offset="0.882812"/><stop stop-opacity="1" stop-color="rgb(23.979187%, 69.039917%, 100%)" offset="0.890625"/><stop stop-opacity="1" stop-color="rgb(23.686218%, 69.387817%, 100%)" offset="0.898437"/><stop stop-opacity="1" stop-color="rgb(23.394775%, 69.735718%, 100%)" offset="0.90625"/><stop stop-opacity="1" stop-color="rgb(23.101807%, 70.085144%, 100%)" offset="0.914062"/><stop stop-opacity="1" stop-color="rgb(22.810364%, 70.433044%, 100%)" offset="0.921875"/><stop stop-opacity="1" stop-color="rgb(22.517395%, 70.780945%, 100%)" offset="0.929687"/><stop stop-opacity="1" stop-color="rgb(22.224426%, 71.130371%, 100%)" offset="0.9375"/><stop stop-opacity="1" stop-color="rgb(22.038269%, 71.351624%, 100%)" offset="1"/></linearGradient></defs><g fill="#38b6ff" fill-opacity="1"><g transform="translate(315.59791, 89.225287)"><g><path d="M 0 102.636719 L 0 126.097656 L 113.78125 126.097656 C 126.683594 126.097656 137.242188 115.542969 137.242188 102.636719 C 137.242188 90.320312 126.683594 79.765625 113.78125 79.765625 L 75.660156 79.765625 C 62.753906 79.765625 52.199219 90.320312 52.199219 102.636719 L 52.199219 122.578125 L 46.921875 122.578125 L 46.921875 102.636719 C 46.921875 87.390625 59.824219 74.484375 75.660156 74.484375 L 113.78125 74.484375 C 129.617188 74.484375 142.519531 87.390625 142.519531 102.636719 C 142.519531 118.472656 129.617188 131.375 113.78125 131.375 L 0 131.375 L 0 134.894531 L 113.78125 134.894531 C 131.375 134.894531 146.039062 120.234375 146.039062 102.636719 C 146.039062 85.628906 131.375 70.96875 113.78125 70.96875 L 75.660156 70.96875 C 58.0625 70.96875 43.402344 85.628906 43.402344 102.636719 L 43.402344 122.578125 L 38.710938 122.578125 L 38.710938 102.636719 C 38.710938 82.695312 55.132812 65.6875 75.660156 65.6875 L 113.78125 65.6875 C 134.308594 65.6875 151.316406 82.695312 151.316406 102.636719 C 151.316406 123.164062 134.308594 140.175781 113.78125 140.175781 L 0 140.175781 L 0 143.105469 L 113.78125 143.105469 C 136.070312 143.105469 154.25 125.511719 154.25 102.636719 C 154.25 80.351562 136.070312 62.167969 113.78125 62.167969 L 75.660156 62.167969 C 53.371094 62.167969 35.191406 80.351562 35.191406 102.636719 L 35.191406 122.578125 L 29.910156 122.578125 L 29.910156 102.636719 C 29.910156 77.417969 50.4375 57.476562 75.660156 57.476562 L 113.78125 57.476562 C 139 57.476562 159.527344 77.417969 159.527344 102.636719 C 159.527344 127.859375 139 148.386719 113.78125 148.386719 L 0 148.386719 L 0 151.90625 L 113.78125 151.90625 C 141.347656 151.90625 163.046875 130.203125 163.046875 102.636719 C 163.046875 75.660156 141.347656 53.957031 113.78125 53.957031 L 75.660156 53.957031 C 48.09375 53.957031 26.394531 75.660156 26.394531 102.636719 L 26.394531 122.578125 L 21.113281 122.578125 L 21.113281 102.636719 C 21.113281 72.726562 45.160156 48.679688 75.660156 48.679688 L 113.78125 48.679688 C 144.28125 48.679688 168.328125 72.726562 168.328125 102.636719 C 168.328125 133.136719 144.28125 157.183594 113.78125 157.183594 L 0 157.183594 L 0 160.703125 L 113.78125 160.703125 C 146.039062 160.703125 171.84375 134.894531 171.84375 102.636719 C 171.84375 70.96875 146.039062 45.160156 113.78125 45.160156 L 75.660156 45.160156 C 43.402344 45.160156 17.59375 70.96875 17.59375 102.636719 L 17.59375 122.578125 L 12.316406 122.578125 L 12.316406 102.636719 C 12.316406 68.035156 40.46875 39.882812 75.660156 39.882812 L 113.78125 39.882812 C 148.972656 39.882812 177.125 68.035156 177.125 102.636719 C 177.125 137.828125 148.972656 165.980469 113.78125 165.980469 L 0 165.980469 L 0 169.5 L 113.78125 169.5 C 150.730469 169.5 180.644531 139.585938 180.644531 102.636719 C 180.644531 66.273438 150.730469 36.363281 113.78125 36.363281 L 75.660156 36.363281 C 38.710938 36.363281 8.796875 66.273438 8.796875 102.636719 L 8.796875 122.578125 L 3.519531 122.578125 L 3.519531 102.636719 C 3.519531 63.34375 35.777344 31.085938 75.660156 31.085938 L 113.78125 31.085938 C 153.664062 31.085938 185.921875 63.34375 185.921875 102.636719 C 185.921875 142.519531 153.664062 174.777344 113.78125 174.777344 L 0 174.777344 L 0 178.296875 L 113.78125 178.296875 C 155.421875 178.296875 189.441406 144.28125 189.441406 102.636719 C 189.441406 61.582031 155.421875 27.566406 113.78125 27.566406 L 75.660156 27.566406 C 34.015625 27.566406 0 61.582031 0 102.636719 Z M 55.71875 102.636719 C 55.71875 92.082031 64.515625 83.285156 75.660156 83.285156 L 113.78125 83.285156 C 124.925781 83.285156 133.722656 92.082031 133.722656 102.636719 C 133.722656 113.78125 124.925781 122.578125 113.78125 122.578125 L 55.71875 122.578125 Z M 55.71875 102.636719 "/></g></g></g><g fill="#38b6ff" fill-opacity="1"><g transform="translate(315.59791, 267.522217)"><g><path d="M 52.199219 0 L 52.199219 55.71875 L 55.71875 55.71875 L 55.71875 0 Z M 43.988281 0 L 43.988281 55.71875 L 47.507812 55.71875 L 47.507812 0 Z M 35.191406 0 L 35.191406 55.71875 L 38.710938 55.71875 L 38.710938 0 Z M 26.394531 0 L 26.394531 55.71875 L 29.910156 55.71875 L 29.910156 0 Z M 17.59375 0 L 17.59375 55.71875 L 21.113281 55.71875 L 21.113281 0 Z M 8.796875 0 L 8.796875 55.71875 L 12.316406 55.71875 L 12.316406 0 Z M 0 0 L 0 55.71875 L 3.519531 55.71875 L 3.519531 0 Z M 0 0 "/></g></g></g><g fill="#38b6ff" fill-opacity="1"><g transform="translate(315.59791, 323.239996)"><g><path d="M 0 0 L 0 55.71875 C 0 72.726562 5.863281 89.734375 17.007812 103.222656 C 6.453125 116.128906 0 132.550781 0 150.730469 C 0 168.914062 6.453125 185.335938 17.007812 198.238281 C 5.863281 211.726562 0 228.148438 0 245.746094 C 0 287.386719 34.015625 320.816406 75.660156 320.816406 L 178.882812 320.816406 L 178.882812 317.886719 L 75.660156 317.886719 C 35.777344 317.886719 3.519531 285.628906 3.519531 245.746094 C 3.519531 229.324219 8.796875 213.488281 19.355469 200.585938 L 22.875 204.691406 C 13.488281 216.417969 8.796875 231.082031 8.796875 245.746094 C 8.796875 282.695312 38.710938 312.605469 75.660156 312.605469 L 166.566406 312.605469 L 166.566406 309.085938 L 75.660156 309.085938 C 40.46875 309.085938 12.316406 280.347656 12.316406 245.746094 C 12.316406 231.667969 17.007812 218.179688 25.21875 207.035156 L 29.324219 210.554688 C 21.699219 220.523438 17.59375 232.84375 17.59375 245.746094 C 17.59375 277.417969 43.402344 303.808594 75.660156 303.808594 L 154.25 303.808594 L 154.25 300.289062 L 75.660156 300.289062 C 45.160156 300.289062 21.113281 275.65625 21.113281 245.746094 C 21.113281 233.429688 25.21875 221.699219 32.257812 212.3125 L 36.949219 215.246094 C 29.910156 224.042969 26.394531 234.601562 26.394531 245.746094 C 26.394531 272.722656 48.09375 295.011719 75.660156 295.011719 L 141.933594 295.011719 L 141.933594 291.492188 L 75.660156 291.492188 C 50.4375 291.492188 29.910156 270.964844 29.910156 245.746094 C 29.910156 235.1875 33.429688 225.21875 39.882812 217.007812 L 44.574219 219.351562 C 38.121094 226.976562 35.191406 235.773438 35.191406 245.746094 C 35.191406 268.03125 52.785156 286.214844 75.660156 286.214844 L 129.617188 286.214844 L 129.617188 282.695312 L 75.660156 282.695312 C 55.132812 282.695312 38.121094 266.273438 38.121094 245.746094 C 38.121094 236.359375 41.640625 227.5625 48.09375 221.113281 L 53.371094 222.871094 C 46.921875 228.734375 43.402344 236.949219 43.402344 245.746094 C 43.402344 263.339844 58.0625 277.417969 75.660156 277.417969 L 116.714844 277.417969 L 116.714844 273.898438 L 75.660156 273.898438 C 59.824219 273.898438 46.921875 261.582031 46.921875 245.746094 C 46.921875 236.949219 51.027344 229.324219 57.476562 224.042969 L 64.515625 225.21875 C 57.476562 229.324219 52.199219 236.949219 52.199219 245.746094 C 52.199219 258.648438 62.753906 268.617188 75.660156 268.617188 L 104.398438 268.617188 L 104.398438 265.097656 L 75.660156 265.097656 C 64.515625 265.097656 55.71875 256.300781 55.71875 245.746094 C 55.71875 235.1875 64.515625 226.390625 75.660156 226.390625 L 178.882812 225.804688 L 178.882812 222.285156 L 75.660156 222.285156 C 35.777344 222.285156 3.519531 190.027344 3.519531 150.730469 C 3.519531 110.847656 35.777344 78.589844 75.660156 78.589844 L 104.398438 78.589844 L 104.398438 75.074219 L 75.660156 75.074219 C 64.515625 75.074219 55.71875 66.273438 55.71875 55.71875 L 55.71875 0 L 52.199219 0 L 52.199219 55.71875 C 52.199219 64.515625 57.476562 72.140625 64.515625 76.246094 L 57.476562 77.417969 C 51.027344 72.140625 46.921875 63.929688 46.921875 55.71875 L 46.921875 0 L 43.402344 0 L 43.402344 55.71875 C 43.402344 64.515625 47.507812 72.726562 53.371094 78.589844 L 48.09375 80.351562 C 41.640625 73.3125 38.121094 65.101562 38.710938 55.71875 L 38.710938 0 L 35.191406 0 L 35.191406 55.71875 C 35.191406 65.101562 38.121094 74.484375 44.574219 82.109375 L 39.882812 84.457031 C 33.429688 76.246094 29.910156 66.273438 29.910156 55.71875 L 29.910156 0 L 26.394531 0 L 26.394531 55.71875 C 26.394531 66.863281 29.910156 77.417969 36.949219 86.214844 L 32.257812 88.5625 C 25.21875 79.179688 21.113281 68.035156 21.113281 55.71875 L 21.113281 0 L 17.59375 0 L 17.59375 55.71875 C 17.59375 68.621094 21.699219 80.9375 29.324219 90.90625 L 25.21875 94.425781 C 17.007812 83.285156 12.316406 69.792969 12.316406 55.71875 L 12.316406 0 L 8.796875 0 L 8.796875 55.71875 C 8.796875 70.378906 14.074219 85.042969 22.875 96.773438 L 19.355469 100.292969 C 9.382812 87.976562 3.519531 72.140625 3.519531 55.71875 L 3.519531 0 Z M 52.199219 150.730469 C 52.199219 163.046875 62.753906 173.605469 75.660156 173.605469 L 104.398438 173.605469 L 104.398438 170.085938 L 75.660156 170.085938 C 64.515625 170.085938 55.71875 161.289062 55.71875 150.730469 C 55.71875 139.585938 64.515625 131.375 75.660156 131.375 L 178.882812 131.375 L 178.882812 127.859375 L 75.660156 127.859375 C 62.753906 127.859375 52.199219 137.828125 52.199219 150.730469 Z M 8.796875 150.730469 C 8.796875 187.679688 38.710938 217.59375 75.660156 217.59375 L 166.566406 217.59375 L 166.566406 214.074219 L 75.660156 214.074219 C 40.46875 214.074219 12.316406 185.335938 12.316406 150.730469 C 12.316406 115.542969 40.46875 87.390625 75.660156 87.390625 L 116.714844 87.390625 L 116.714844 83.871094 L 75.660156 83.871094 C 38.710938 83.871094 8.796875 113.78125 8.796875 150.730469 Z M 43.402344 150.730469 C 43.402344 168.328125 58.0625 182.402344 75.660156 182.402344 L 116.714844 182.402344 L 116.714844 178.882812 L 75.660156 178.882812 C 59.824219 178.882812 46.921875 165.980469 46.921875 150.730469 C 46.921875 134.894531 59.824219 122.578125 75.660156 122.578125 L 166.566406 122.578125 L 166.566406 119.058594 L 75.660156 119.058594 C 58.0625 119.058594 43.402344 133.136719 43.402344 150.730469 Z M 17.59375 150.730469 C 17.59375 182.402344 43.402344 208.796875 75.660156 208.796875 L 154.25 208.796875 L 154.25 205.277344 L 75.660156 205.277344 C 45.160156 205.277344 21.113281 180.644531 21.113281 150.730469 C 21.113281 120.820312 45.160156 96.1875 75.660156 96.1875 L 129.617188 96.1875 L 129.617188 92.667969 L 75.660156 92.667969 C 43.402344 92.667969 17.59375 118.472656 17.59375 150.730469 Z M 35.191406 150.730469 C 35.191406 173.019531 52.785156 191.199219 75.660156 191.199219 L 129.617188 191.199219 L 129.617188 187.679688 L 75.660156 187.679688 C 55.132812 187.679688 38.121094 171.257812 38.121094 150.730469 C 38.121094 130.203125 55.132812 113.78125 75.660156 113.78125 L 154.25 113.78125 L 154.25 110.261719 L 75.660156 110.261719 C 52.785156 110.261719 35.191406 128.445312 35.191406 150.730469 Z M 26.394531 150.730469 C 26.394531 177.710938 48.09375 199.996094 75.660156 199.996094 L 141.933594 199.996094 L 141.933594 196.480469 L 75.660156 196.480469 C 50.4375 196.480469 29.910156 175.949219 29.910156 150.730469 C 29.910156 125.511719 50.4375 104.984375 75.660156 104.984375 L 141.933594 104.984375 L 141.933594 101.464844 L 75.660156 101.464844 C 48.09375 101.464844 26.394531 123.753906 26.394531 150.730469 Z M 26.394531 150.730469 "/></g></g></g><g fill="#38b6ff" fill-opacity="1"><g transform="translate(60.400485, 783.603453)"><g><path d="M 603.375 -673.140625 L 603.375 -237.578125 C 603.375 -191.066406 593.945312 -149.113281 575.09375 -111.71875 C 556.238281 -74.320312 527.328125 -44.78125 488.359375 -23.09375 C 449.390625 -1.414062 400.363281 9.421875 341.28125 9.421875 C 257.0625 9.421875 193.265625 -13.359375 149.890625 -58.921875 C 106.523438 -104.492188 84.84375 -164.675781 84.84375 -239.46875 L 84.84375 -673.140625 L 169.703125 -673.140625 L 169.703125 -236.640625 C 169.703125 -181.953125 184.3125 -139.523438 213.53125 -109.359375 C 242.757812 -79.191406 286.914062 -64.109375 346 -64.109375 C 406.96875 -64.109375 451.117188 -80.289062 478.453125 -112.65625 C 505.796875 -145.03125 519.46875 -186.671875 519.46875 -237.578125 L 519.46875 -673.140625 Z M 603.375 -673.140625 "/></g></g></g><path stroke-linecap="butt" transform="matrix(0.75, 0, 0, 0.75, 146.850054, 15.750019)" fill="none" stroke-linejoin="miter" d="M 0.00201172 47.499977 L 691.892672 47.499977 " stroke="url(#c02baeb8b5)" stroke-width="95" stroke-miterlimit="4"/></svg>